<svg xmlns="http://www.w3.org/2000/svg" width="736" height="288" class="bob" font-family="arial" font-size="14"><defs><marker id="triangle" markerHeight="8" markerWidth="8" orient="auto" refX="4" refY="2" viewBox="0 0 8 4"><polygon fill="#000" points="0 0 0 4 8 2 0 0"/></marker><marker id="clear_triangle" markerHeight="10" markerWidth="10" orient="auto" refX="1" refY="7" viewBox="0 0 20 14"><polygon fill="none" stroke="#000" stroke-width="2" points="2 2 2 12 18 7 2 2"/></marker><marker id="circle" markerHeight="5" markerWidth="5" orient="auto" refX="10" refY="10" viewBox="0 0 20 20"><circle cx="10" cy="10" r="8" fill="#000"/></marker><marker id="square" markerHeight="5" markerWidth="5" orient="auto" refX="10" refY="10" viewBox="0 0 20 20"><rect width="20" height="20" x="0" y="0" fill="#000"/></marker><marker id="open_circle" markerHeight="10" markerWidth="10" orient="auto" refX="10" refY="10" viewBox="0 0 20 20"><circle cx="10" cy="10" r="4" fill="#fff" stroke="#000" stroke-width="2"/></marker><marker id="big_open_circle" markerHeight="20" markerWidth="20" orient="auto" refX="20" refY="20" viewBox="0 0 40 40"><circle cx="20" cy="20" r="6" fill="#fff" stroke="#000" stroke-width="2"/></marker></defs><style type="text/css">line,path{stroke:#000;stroke-width:2;stroke-opacity:1;fill-opacity:1;stroke-linecap:round;stroke-linejoin:miter}</style><rect width="736" height="288" x="0" y="0" fill="#fff"/><g><line x1="12" x2="12" y1="108" y2="132"/><path fill="none" d="M 12 132 A 4 4 0 0 0 16 136"/><path fill="none" d="M 16 104 A 4 4 0 0 0 12 108"/></g><g><line x1="16" x2="80" y1="104" y2="104"/><path fill="none" d="M 84 108 A 4 4 0 0 0 80 104"/></g><g><line x1="16" x2="80" y1="136" y2="136"/><path fill="none" d="M 80 136 A 4 4 0 0 0 84 132"/></g><g><line x1="52" x2="52" y1="12" y2="92" marker-end="url(#triangle)"/><path fill="none" d="M 56 8 A 4 4 0 0 0 52 12"/></g><g><line x1="56" x2="408" y1="8" y2="8"/><path fill="none" d="M 412 12 A 4 4 0 0 0 408 8"/></g><g><line x1="84" x2="84" y1="108" y2="132"/></g><g><line x1="84" x2="132" y1="120" y2="120" marker-end="url(#triangle)"/></g><g><line x1="116" x2="116" y1="44" y2="112"/><path fill="none" d="M 120 40 A 4 4 0 0 0 116 44"/></g><g><line x1="116" x2="116" y1="128" y2="196"/><path fill="none" d="M 116 196 A 4 4 0 0 0 120 200"/></g><g><line x1="120" x2="412" y1="40" y2="40"/><line x1="412" x2="728" y1="40" y2="40"/><path fill="none" d="M 732 44 A 4 4 0 0 0 728 40"/></g><g><line x1="120" x2="188" y1="200" y2="200"/><line x1="188" x2="276" y1="200" y2="200"/><line x1="276" x2="412" y1="200" y2="200"/><line x1="412" x2="728" y1="200" y2="200"/><path fill="none" d="M 728 200 A 4 4 0 0 0 732 196"/></g><g><line x1="140" x2="140" y1="92" y2="148"/><path fill="none" d="M 140 148 A 4 4 0 0 0 144 152"/><path fill="none" d="M 144 88 A 4 4 0 0 0 140 92"/></g><g><line x1="144" x2="200" y1="88" y2="88"/><path fill="none" d="M 204 92 A 4 4 0 0 0 200 88"/></g><g><line x1="144" x2="200" y1="152" y2="152"/><path fill="none" d="M 200 152 A 4 4 0 0 0 204 148"/></g><g><line x1="180" x2="180" y1="252" y2="276"/><path fill="none" d="M 180 276 A 4 4 0 0 0 184 280"/><path fill="none" d="M 184 248 A 4 4 0 0 0 180 252"/></g><g><line x1="184" x2="280" y1="280" y2="280"/><path fill="none" d="M 280 280 A 4 4 0 0 0 284 276"/></g><g><line x1="188" x2="188" y1="176" y2="164" marker-end="url(#triangle)"/><line x1="188" x2="188" y1="176" y2="248"/><line x1="188" x2="184" y1="248" y2="248"/><line x1="188" x2="280" y1="248" y2="248"/><path fill="none" d="M 284 252 A 4 4 0 0 0 280 248"/></g><g><line x1="204" x2="204" y1="92" y2="148"/></g><g><line x1="204" x2="228" y1="120" y2="120" marker-end="url(#triangle)"/></g><g><line x1="236" x2="236" y1="92" y2="148"/><path fill="none" d="M 236 148 A 4 4 0 0 0 240 152"/><path fill="none" d="M 240 88 A 4 4 0 0 0 236 92"/></g><g><line x1="240" x2="336" y1="88" y2="88"/><path fill="none" d="M 340 92 A 4 4 0 0 0 336 88"/></g><g><line x1="240" x2="276" y1="152" y2="152"/><line x1="276" x2="276" y1="152" y2="236" marker-end="url(#triangle)"/><line x1="276" x2="336" y1="152" y2="152"/><path fill="none" d="M 336 152 A 4 4 0 0 0 340 148"/></g><g><line x1="284" x2="284" y1="252" y2="276"/></g><g><line x1="340" x2="340" y1="92" y2="148"/></g><g><line x1="340" x2="364" y1="120" y2="120" marker-end="url(#triangle)"/></g><g><line x1="372" x2="372" y1="92" y2="148"/><path fill="none" d="M 372 148 A 4 4 0 0 0 376 152"/><path fill="none" d="M 376 88 A 4 4 0 0 0 372 92"/></g><g><line x1="376" x2="412" y1="88" y2="88"/><line x1="412" x2="412" y1="12" y2="88"/><line x1="412" x2="488" y1="88" y2="88"/><path fill="none" d="M 492 92 A 4 4 0 0 0 488 88"/></g><g><line x1="376" x2="412" y1="152" y2="152"/><line x1="412" x2="412" y1="152" y2="236" marker-end="url(#triangle)"/><line x1="412" x2="488" y1="152" y2="152"/><path fill="none" d="M 488 152 A 4 4 0 0 0 492 148"/></g><g><line x1="388" x2="388" y1="252" y2="276"/><path fill="none" d="M 388 276 A 4 4 0 0 0 392 280"/><path fill="none" d="M 392 248 A 4 4 0 0 0 388 252"/></g><g><line x1="392" x2="440" y1="248" y2="248"/><path fill="none" d="M 444 252 A 4 4 0 0 0 440 248"/></g><g><line x1="392" x2="440" y1="280" y2="280"/><path fill="none" d="M 440 280 A 4 4 0 0 0 444 276"/></g><g><line x1="444" x2="444" y1="252" y2="276"/></g><g><line x1="492" x2="492" y1="92" y2="148"/></g><g><line x1="492" x2="516" y1="120" y2="120" marker-end="url(#triangle)"/></g><g><line x1="524" x2="524" y1="92" y2="148"/><path fill="none" d="M 524 148 A 4 4 0 0 0 528 152"/><path fill="none" d="M 528 88 A 4 4 0 0 0 524 92"/></g><g><line x1="528" x2="592" y1="88" y2="88"/><path fill="none" d="M 596 92 A 4 4 0 0 0 592 88"/></g><g><line x1="528" x2="592" y1="152" y2="152"/><path fill="none" d="M 592 152 A 4 4 0 0 0 596 148"/></g><g><line x1="596" x2="596" y1="92" y2="148"/></g><g><line x1="596" x2="620" y1="120" y2="120" marker-end="url(#triangle)"/></g><g><line x1="628" x2="628" y1="92" y2="148"/><path fill="none" d="M 628 148 A 4 4 0 0 0 632 152"/><path fill="none" d="M 632 88 A 4 4 0 0 0 628 92"/></g><g><line x1="632" x2="704" y1="88" y2="88"/><path fill="none" d="M 708 92 A 4 4 0 0 0 704 88"/></g><g><line x1="632" x2="704" y1="152" y2="152"/><path fill="none" d="M 704 152 A 4 4 0 0 0 708 148"/></g><g><line x1="708" x2="708" y1="92" y2="148"/></g><g><line x1="732" x2="732" y1="44" y2="196"/></g><g><text x="25" y="124">Leader</text></g><g><text x="137" y="60">Tvu</text></g><g><text x="153" y="108">Blob</text></g><g><text x="153" y="124">Fetch</text></g><g><text x="153" y="140">Stage</text></g><g><text x="193" y="268">Validators</text></g><g><text x="249" y="108">Retransmit</text></g><g><text x="265" y="124">Stage</text></g><g><text x="385" y="108">Replicate</text></g><g><text x="401" y="124">Stage</text></g><g><text x="401" y="268">Bank</text></g><g><text x="537" y="108">Ledger</text></g><g><text x="537" y="124">Write</text></g><g><text x="537" y="140">Stage</text></g><g><text x="641" y="108">Storage</text></g><g><text x="649" y="124">Stage</text></g></svg>